<?xml version="1.0" encoding="utf-8"?><!-- Uploaded to: SVG Repo, www.svgrepo.com, Generator: SVG Repo Mixer Tools -->
<svg width="800px" height="800px" viewBox="0 0 400 400" fill="none" xmlns="http://www.w3.org/2000/svg">
<path d="M300.696 212.611C275.202 216.805 248.986 222.216 223.107 222.216C192.243 222.216 123.013 234.338 96.1423 215.173C77.8537 202.13 94.3638 168.629 99.3474 153.704C120.054 91.6683 204.916 99.9546 251.321 118.488C276.716 128.63 336.607 180.807 310.958 210.692" stroke="#000000" stroke-opacity="0.9" stroke-width="16" stroke-linecap="round" stroke-linejoin="round"/>
<path d="M95.5024 216.262C17.5952 246.387 274.092 246.875 278.128 246.875C283.539 246.875 314.822 252.11 317.716 248.174C326.522 236.198 318.545 211.73 303.668 217.565" stroke="#000000" stroke-opacity="0.9" stroke-width="16" stroke-linecap="round" stroke-linejoin="round"/>
<path opacity="0.503384" d="M87.7475 239.905C87.2153 272.009 104.217 260.94 118.452 246.429C121.075 243.754 113.175 271.413 128.689 273.168C142.381 274.719 145.834 260.124 149.798 260.124C152.573 260.124 150.772 272.002 156.193 271.213C170.488 269.13 173.017 250.397 188.815 248.384C204.858 246.34 237.14 268.049 248.944 264.038C253.7 262.421 253.202 251.359 256.622 249.035C258.283 247.907 263.212 265.204 269.414 265.993C286.832 268.214 316.075 273.749 302.678 246.429" stroke="#000000" stroke-opacity="0.9" stroke-width="14" stroke-linecap="round" stroke-linejoin="round"/>
<path d="M82.2941 259.156C77.9541 267.997 74.3494 279.393 84.8505 285.405C99.5333 293.816 292.479 298.743 310.401 287.967C319.054 282.764 315.125 264.26 313.595 256.594" stroke="#000000" stroke-opacity="0.9" stroke-width="16" stroke-linecap="round" stroke-linejoin="round"/>
</svg>